<svg xmlns="http://www.w3.org/2000/svg" viewBox="0 0 32 32" width="32" height="32">
  <!-- Background -->
  <rect width="32" height="32" rx="6" fill="#000000"/>
  
  <!-- Main "D" letter -->
  <g transform="translate(8, 6)">
    <path d="M0 0 L0 20 L8 20 Q16 20 16 10 Q16 0 8 0 Z" fill="#c4ff00"/>
    <!-- Inner cutout -->
    <path d="M4 4 L4 16 L8 16 Q12 16 12 10 Q12 4 8 4 Z" fill="#000000"/>
  </g>
  
  <!-- Single big sparkle in lower right corner with thick black outline -->
  <g transform="translate(24, 24)">
    <!-- Black outline (larger) -->
    <path d="M0 -5 L2 -2 L5 0 L2 2 L0 5 L-2 2 L-5 0 L-2 -2 Z" fill="#000000"/>
    <!-- Lime green sparkle (on top) -->
    <path d="M0 -4 L1.5 -1.5 L4 0 L1.5 1.5 L0 4 L-1.5 1.5 L-4 0 L-1.5 -1.5 Z" fill="#c4ff00"/>
  </g>
</svg>